<svg xmlns="http://www.w3.org/2000/svg" width="24" height="24" viewBox="0 0 24 24" fill="none" stroke="currentColor" stroke-width="2" stroke-linecap="butt" stroke-linejoin="miter">
<path d="M3 10H21M21 14.5V4H3V22H13M8 1V7M16 1V7M19 20.7321C19.9566 20.1798 20.2843 18.9566 19.732 18C19.1798 17.0434 17.9566 16.7157 17 17.268M19 20.7321C18.0434 21.2843 16.8202 20.9566 16.2679 20C15.7157 19.0434 16.0434 17.8202 17 17.268M19 20.7321L20 22.4641M17 17.268L16 15.5359M20 15.5359L19.0002 17.2677M22 19H20.0003M16 22.4641L16.9998 20.7323M14 19H15.9997"/>
</svg>
