<svg xmlns="http://www.w3.org/2000/svg" width="24" height="24" viewBox="0 0 24 24" fill="none" stroke="currentColor" stroke-width="2" stroke-linecap="butt" stroke-linejoin="miter">
<path d="M16 1V7"/>
<path d="M3 10H21M8 1V7M13 17.732C13.9566 17.1798 14.2843 15.9566 13.7321 15C13.1798 14.0434 11.9566 13.7157 11 14.2679M13 17.732C12.0434 18.2843 10.8202 17.9566 10.2679 17C9.71566 16.0434 10.0434 14.8202 11 14.2679M13 17.732L14 19.4641M11 14.2679L10 12.5359M14 12.5359L13.0002 14.2677M16 16H14.0003M10 19.4641L10.9998 17.7323M8 16H9.99967M3 4H21V22H3V4Z"/>
</svg>
