<svg xmlns="http://www.w3.org/2000/svg" width="24" height="24" viewBox="0 0 24 24" fill="none" stroke="currentColor" stroke-width="2" stroke-linecap="butt" stroke-linejoin="miter">
<path d="M12 3C7.02944 3 3 7.02944 3 12C3 16.9706 7.02944 21 12 21C16.9706 21 21 16.9706 21 12C21 7.02944 16.9706 3 12 3ZM12 3L12 1M19.0707 3.57351L17.7851 5.1056M22.8329 10.0899L15.0782 11.5M21.5263 17.5L19.7942 16.5M15.7622 22.3366L15.0782 20.4572M8.23778 22.3366L11 15M2.47372 17.5L4.20577 16.5M1.16711 10.0899L3.13673 10.4372M4.92933 3.57351L10 9.5M15 12C15 13.6569 13.6569 15 12 15C10.3431 15 9 13.6569 9 12C9 10.3431 10.3431 9 12 9C13.6569 9 15 10.3431 15 12Z"/>
</svg>
