<svg xmlns="http://www.w3.org/2000/svg" width="24" height="24" viewBox="0 0 24 24" fill="none" stroke="currentColor" stroke-width="2" stroke-linecap="butt" stroke-linejoin="miter">
<path d="M3 3L21 21M19.5 15.5329C21.1773 13.772 22 12 22 12C22 12 18.75 5 12 5C10.9089 5 9.90925 5.1829 9 5.48958M17.1176 17.5C15.7195 18.3757 14.0158 19 12 19C5.25 19 2 12 2 12C2 12 3.47453 8.82408 6.5 6.75068M14 14.2361C13.4692 14.7111 12.7684 15 12 15C10.3431 15 9 13.6569 9 12C9 11.2316 9.28885 10.5308 9.76389 10"/>
</svg>
