<svg xmlns="http://www.w3.org/2000/svg" width="24" height="24" viewBox="0 0 24 24" fill="none" stroke="currentColor" stroke-width="2" stroke-linecap="butt" stroke-linejoin="miter">
<path d="M20.8966 10.1699C21.6353 11.2146 22 12 22 12C22 12 21.6353 12.7854 20.8966 13.8301M19.5446 8.5141C18.6541 7.57062 17.5183 6.62577 16.1325 5.9538M9.88249 5.23931C10.5455 5.08614 11.2512 5 12 5C12.7488 5 13.4545 5.08614 14.1175 5.23931M7.85795 5.95844C6.48333 6.62676 5.35519 7.56338 4.46875 8.5M3.10171 10.1723C2.36411 11.2158 2 12 2 12C2 12 2.36323 12.7823 3.09903 13.8239M19.5313 15.5C18.6433 16.4382 17.5128 17.3764 16.1351 18.045M14.1317 18.7574C13.4646 18.9126 12.7541 19 12 19C11.2459 19 10.5354 18.9126 9.86835 18.7574M7.86844 18.0467C6.48907 17.378 5.35745 16.439 4.46875 15.5M15 12C15 13.6569 13.6569 15 12 15C10.3431 15 9 13.6569 9 12C9 10.3431 10.3431 9 12 9C13.6569 9 15 10.3431 15 12Z"/>
</svg>
