<svg xmlns="http://www.w3.org/2000/svg" width="24" height="24" viewBox="0 0 24 24" fill="none" stroke="currentColor" stroke-width="2" stroke-linecap="butt" stroke-linejoin="miter">
<path d="M14 2H4V22H20V8M14 2V8H20M14 2H15L20 7V8M13 17.1962C13.9566 16.6439 14.2843 15.4207 13.7321 14.4641C13.1798 13.5075 11.9566 13.1798 11 13.7321M13 17.1962C12.0434 17.7484 10.8202 17.4207 10.268 16.4641C9.71567 15.5075 10.0434 14.2843 11 13.7321M13 17.1962L14 18.9282M11 13.7321L10 12M14 12L13.0002 13.7318M16 15.4641H14M10 18.9282L10.9998 17.1964M8 15.4641H9.99967"/>
</svg>
