<svg xmlns="http://www.w3.org/2000/svg" width="24" height="24" viewBox="0 0 24 24" fill="none" stroke="currentColor" stroke-width="2" stroke-linecap="butt" stroke-linejoin="miter">
<path d="M12 22H20V8M20 8H14V2M20 8V7L15 2H14M14 2H4V13M8 20.1962C8.95659 19.6439 9.28434 18.4207 8.73205 17.4641C8.17977 16.5075 6.95659 16.1798 6 16.7321M8 20.1962C7.04342 20.7484 5.82024 20.4207 5.26795 19.4641C4.71567 18.5075 5.04342 17.2843 6 16.7321M8 20.1962L9 21.9282M6 16.7321L5 15M9 15L8.00017 16.7318M11 18.4641H9M5 21.9282L5.99983 20.1964M3 18.4641H4.99967"/>
</svg>
