<svg xmlns="http://www.w3.org/2000/svg" width="24" height="24" viewBox="0 0 24 24" fill="none" stroke="currentColor" stroke-width="2" stroke-linecap="butt" stroke-linejoin="miter">
<path d="M13 20H2V3H9L11 6H22V12M20 19.1962C20.9566 18.6439 21.2843 17.4207 20.7321 16.4641C20.1798 15.5075 18.9566 15.1798 18 15.7321M20 19.1962C19.0434 19.7484 17.8202 19.4207 17.268 18.4641C16.7157 17.5075 17.0434 16.2843 18 15.7321M20 19.1962L21 20.9282M18 15.7321L17 14M21 14L20.0002 15.7318M23 17.4641H21M17 20.9282L17.9998 19.1964M15 17.4641H16.9997"/>
</svg>
