<svg xmlns="http://www.w3.org/2000/svg" width="24" height="24" viewBox="0 0 24 24" fill="none" stroke="currentColor" stroke-width="2" stroke-linecap="butt" stroke-linejoin="miter">
<path d="M8.99999 12C8.17156 11.1716 6.82841 11.1716 5.99999 12L4.74999 13.25C3.2312 14.7688 3.23121 17.2313 4.74999 18.75L5.24999 19.25C6.76877 20.7688 9.2312 20.7688 10.75 19.25L12 18.0001C12.8284 17.1716 12.8284 15.8285 12 15M12 9.00005C11.1716 8.17162 11.1716 6.82848 12 6.00005L13.25 4.75005C14.7688 3.23127 17.2312 3.23127 18.75 4.75005L19.25 5.25005C20.7688 6.76883 20.7688 9.23127 19.25 10.75L18 12C17.1716 12.8285 15.8284 12.8285 15 12M7.99999 16L16 8.00004"/>
</svg>
