<svg xmlns="http://www.w3.org/2000/svg" width="24" height="24" viewBox="0 0 24 24" fill="none" stroke="currentColor" stroke-width="2" stroke-linecap="butt" stroke-linejoin="miter">
<path d="M4 22V16H10M20 2V8H14M20.0645 16C20.6633 14.795 21 13.4368 21 12C21 11.662 20.9814 11.3283 20.9451 11M18.3851 18.3428C16.7548 19.9839 14.496 21 12 21C8.46628 21 5.40822 18.9634 3.93552 16M5.64662 5.62547C4.01172 7.25498 3 9.50934 3 12C3 12.338 3.01863 12.6717 3.05493 13M7.95376 3.95867C9.17016 3.34539 10.5447 3 12 3C15.5337 3 18.5918 5.03656 20.0645 8M3 3L21 21"/>
</svg>
