<svg xmlns="http://www.w3.org/2000/svg" width="24" height="24" viewBox="0 0 24 24" fill="none" stroke="currentColor" stroke-width="2" stroke-linecap="butt" stroke-linejoin="miter">
<path d="M15 12C15 13.6569 13.6568 15 12 15C10.3431 15 8.99997 13.6569 8.99997 12C8.99997 10.3431 10.3431 9 12 9C13.6568 9 15 10.3431 15 12Z"/>
<path d="M15.6 5.76462L14.3293 3.30667L9.6706 3.30667L8.39997 5.76462L5.63601 5.63604L3.30664 9.67063L4.79997 12L3.30664 14.3294L5.63601 18.364L8.39997 18.2354L9.6706 20.6933L14.3293 20.6933L15.6 18.2354L18.3639 18.364L20.6933 14.3294L19.2 12L20.6933 9.67063L18.3639 5.63604L15.6 5.76462Z"/>
</svg>
