<svg xmlns="http://www.w3.org/2000/svg" width="24" height="24" viewBox="0 0 24 24" fill="none" stroke="currentColor" stroke-width="2" stroke-linecap="butt" stroke-linejoin="miter">
<path d="M12 13C13.6568 13 15 11.6569 15 10C15 8.34315 13.6568 7 12 7C10.3431 7 8.99998 8.34315 8.99998 10C8.99998 11.6569 10.3431 13 12 13ZM12 13C14.973 13 17.4409 15.1623 17.917 18M12 13C9.02698 13 6.55901 15.1623 6.08294 18M12 21L5.99998 18L3.33972 6C3.33972 6 8.42076 3 12 3C15.5792 3 20.6602 6 20.6602 6L18 18L12 21Z"/>
</svg>
