<svg xmlns="http://www.w3.org/2000/svg" width="24" height="24" viewBox="0 0 24 24" fill="none" stroke="currentColor" stroke-width="2" stroke-linecap="butt" stroke-linejoin="miter">
<path d="M13 13.732C13.9566 13.1798 14.2843 11.9566 13.732 11C13.1797 10.0434 11.9566 9.71566 11 10.2679M13 13.732C12.0434 14.2843 10.8202 13.9566 10.2679 13C9.71564 12.0434 10.0434 10.8202 11 10.2679M13 13.732L14 15.4641M11 10.2679L9.99997 8.5359M14 8.5359L13.0001 10.2677M16 12H14.0003M9.99997 15.4641L10.9998 13.7323M7.99997 12H9.99964M12 21L5.99998 18L3.33972 6C3.33972 6 8.42076 3 12 3C15.5792 3 20.6602 6 20.6602 6L18 18L12 21Z"/>
</svg>
