<svg xmlns="http://www.w3.org/2000/svg" width="24" height="24" viewBox="0 0 24 24" fill="none" stroke="currentColor" stroke-width="2" stroke-linecap="butt" stroke-linejoin="miter">
<path d="M19.1084 13L20.6602 6C20.6602 6 15.5792 3 12 3C8.42076 3 3.33972 6 3.33972 6L5.99998 18L12 21L13 20.5M19 19.732C19.9566 19.1798 20.2843 17.9566 19.732 17C19.1797 16.0434 17.9566 15.7157 17 16.2679M19 19.732C18.0434 20.2843 16.8202 19.9566 16.2679 19C15.7156 18.0434 16.0434 16.8202 17 16.2679M19 19.732L20 21.4641M17 16.2679L16 14.5359M20 14.5359L19.0001 16.2677M22 18H20.0003M16 21.4641L16.9998 19.7323M14 18H15.9996"/>
</svg>
