<svg xmlns="http://www.w3.org/2000/svg" width="24" height="24" viewBox="0 0 24 24" fill="none" stroke="currentColor" stroke-width="2" stroke-linecap="butt" stroke-linejoin="miter">
<path d="M12 13C14.7614 13 17 10.7614 17 8C17 5.23858 14.7614 3 12 3C9.23857 3 7 5.23858 7 8C7 10.7614 9.23857 13 12 13ZM12 13C6.97553 13 3.80459 16.8921 3 22M18.8 15C20.015 15 21 16.0139 21 17.2647C21 19.7153 17 22 17 22C17 22 13 19.7153 13 17.2647C13 16.0139 13.985 15 15.2 15C15.9443 15 16.6019 15.3807 17 15.9631C17.3981 15.3807 18.0557 15 18.8 15Z"/>
</svg>
