<svg xmlns="http://www.w3.org/2000/svg" width="24" height="24" viewBox="0 0 24 24" fill="none" stroke="currentColor" stroke-width="2" stroke-linecap="butt" stroke-linejoin="miter">
<path d="M16 14.6154C14.6352 13.5913 12.9584 13 11 13C5.97553 13 2.80459 16.8921 2 22M17 8C17 10.7614 14.7614 13 12 13C9.23858 13 7 10.7614 7 8C7 5.23858 9.23858 3 12 3C14.7614 3 17 5.23858 17 8ZM18 16L19.0756 17.5195L20.8532 18.0729L19.7404 19.5655L19.7634 21.4271L18 20.83L16.2366 21.4271L16.2596 19.5655L15.1468 18.0729L16.9244 17.5195L18 16Z"/>
</svg>
