<svg xmlns="http://www.w3.org/2000/svg" width="24" height="24" viewBox="0 0 24 24" fill="none" stroke="currentColor" stroke-width="2" stroke-linecap="butt" stroke-linejoin="miter">
<path d="M11 13C13.7614 13 16 10.7614 16 8C16 5.23858 13.7614 3 11 3C8.23858 3 6 5.23858 6 8C6 10.7614 8.23858 13 11 13ZM11 13C12.9584 13 14.6352 13.5913 16 14.6154M11 13C5.97554 13 2.80459 16.8921 2 22M18.5 22L20.232 21.1667L21 17.8333C21 17.8333 19.5332 17 18.5 17C17.4668 17 16 17.8333 16 17.8333L16.7679 21.1667L18.5 22Z"/>
</svg>
