<svg xmlns="http://www.w3.org/2000/svg" width="24" height="24" viewBox="0 0 24 24" fill="none" stroke="currentColor" stroke-width="2" stroke-linecap="butt" stroke-linejoin="miter">
<path d="M11 13C13.7614 13 16 10.7614 16 8C16 5.23858 13.7614 3 11 3C8.23858 3 6 5.23858 6 8C6 10.7614 8.23858 13 11 13ZM11 13C12.9584 13 14.6352 13.5913 16 14.6154M11 13C5.97554 13 2.80459 16.8921 2 22M20 21.1962C20.9566 20.6439 21.2843 19.4207 20.7321 18.4641C20.1798 17.5075 18.9566 17.1798 18 17.7321M20 21.1962C19.0434 21.7484 17.8202 21.4207 17.268 20.4641C16.7157 19.5075 17.0434 18.2843 18 17.7321M20 21.1962L21 22.9282M18 17.7321L17 16M21 16L20.0002 17.7318M23 19.4641H21M17 22.9282L17.9998 21.1964M15 19.4641H16.9997"/>
</svg>
