<svg width="360" height="48" viewBox="0 0 360 48" fill="none" xmlns="http://www.w3.org/2000/svg">
<path d="M66.8062 47.8708C65.0363 47.8708 63.3528 47.7201 61.7556 47.4186C60.1584 47.1171 58.9065 46.6864 58 46.1265L61.4318 38.6972C62.3815 39.3863 63.7629 39.7308 65.5759 39.7308C67.0868 39.7308 68.3386 39.3647 69.3315 38.6326C70.3675 37.8573 70.8855 36.5868 70.8855 34.821V1.93809H79.9507V35.144C79.9507 38.0727 79.3679 40.4845 78.2024 42.3795C77.08 44.2315 75.526 45.6097 73.5403 46.5141C71.5978 47.4186 69.3531 47.8708 66.8062 47.8708Z" fill="white"/>
<path d="M101.561 48C98.1075 48 95.0642 47.2032 92.431 45.6097C89.7977 44.0162 87.7473 41.9058 86.2796 39.2786C84.8551 36.6083 84.1428 33.6581 84.1428 30.428C84.1428 27.1978 84.8982 24.2476 86.4091 21.5774C87.92 18.8641 89.9704 16.7106 92.5605 15.1171C95.1937 13.5236 98.1938 12.7268 101.561 12.7268C104.928 12.7268 107.885 13.5236 110.432 15.1171C113.022 16.7106 115.029 18.8641 116.454 21.5774C117.921 24.2476 118.655 27.1978 118.655 30.428C118.655 30.9017 118.634 31.397 118.59 31.9139C118.547 32.4307 118.483 32.969 118.396 33.5289H93.208C93.6828 35.5101 94.6325 37.1252 96.057 38.3742C97.5247 39.6232 99.3593 40.2476 101.561 40.2476C103.46 40.2476 105.101 39.817 106.482 38.9556C107.907 38.0942 109.007 37.0175 109.784 35.7254L116.583 40.8291C115.245 42.9394 113.238 44.6622 110.561 45.9973C107.885 47.3324 104.885 48 101.561 48ZM101.431 20.2207C99.3593 20.2207 97.5895 20.8452 96.1218 22.0942C94.6541 23.3432 93.6828 24.9798 93.208 27.004H109.849C109.374 25.1521 108.381 23.5585 106.87 22.2234C105.403 20.8883 103.59 20.2207 101.431 20.2207Z" fill="white"/>
<path d="M137.396 48C134.331 48 131.525 47.2248 128.978 45.6743C126.475 44.0808 124.467 41.9704 122.957 39.3432C121.489 36.6729 120.755 33.7227 120.755 30.4926C120.755 28.0808 121.187 25.8197 122.05 23.7093C122.913 21.5559 124.101 19.6824 125.611 18.0888C127.122 16.4522 128.871 15.1817 130.856 14.2773C132.885 13.3297 135.065 12.856 137.396 12.856C140.288 12.856 142.555 13.3943 144.195 14.4711C145.835 15.5478 147.109 16.969 148.015 18.7349V0H156.757V47.1602H148.274V41.6689C147.368 43.5639 146.073 45.0929 144.389 46.2557C142.749 47.4186 140.418 48 137.396 48ZM138.821 40.1184C140.763 40.1184 142.425 39.6878 143.807 38.8264C145.231 37.9219 146.332 36.7376 147.109 35.2732C147.886 33.8089 148.274 32.2153 148.274 30.4926C148.274 28.7268 147.886 27.1117 147.109 25.6474C146.332 24.183 145.231 22.9987 143.807 22.0942C142.425 21.1898 140.763 20.7376 138.821 20.7376C136.964 20.7376 135.324 21.1898 133.9 22.0942C132.518 22.9556 131.439 24.1184 130.662 25.5828C129.885 27.0471 129.496 28.6622 129.496 30.428C129.496 32.1077 129.885 33.7012 130.662 35.2086C131.439 36.673 132.518 37.8573 133.9 38.7618C135.324 39.6662 136.964 40.1184 138.821 40.1184Z" fill="white"/>
<path d="M177.297 48C174.232 48 171.426 47.2248 168.879 45.6743C166.375 44.0808 164.368 41.9704 162.857 39.3432C161.389 36.6729 160.655 33.7227 160.655 30.4926C160.655 28.0808 161.087 25.8197 161.951 23.7093C162.814 21.5559 164.001 19.6824 165.512 18.0888C167.023 16.4522 168.771 15.1817 170.757 14.2773C172.786 13.3297 174.966 12.856 177.297 12.856C180.189 12.856 182.455 13.3943 184.095 14.4711C185.736 15.5478 187.009 16.969 187.916 18.7349V0H196.657V47.1602H188.175V41.6689C187.268 43.5639 185.973 45.0929 184.29 46.2557C182.649 47.4186 180.318 48 177.297 48ZM178.721 40.1184C180.664 40.1184 182.326 39.6878 183.707 38.8264C185.131 37.9219 186.232 36.7376 187.009 35.2732C187.786 33.8089 188.175 32.2153 188.175 30.4926C188.175 28.7268 187.786 27.1117 187.009 25.6474C186.232 24.183 185.131 22.9987 183.707 22.0942C182.326 21.1898 180.664 20.7376 178.721 20.7376C176.865 20.7376 175.225 21.1898 173.8 22.0942C172.419 22.9556 171.339 24.1184 170.562 25.5828C169.785 27.0471 169.397 28.6622 169.397 30.428C169.397 32.1077 169.785 33.7012 170.562 35.2086C171.339 36.673 172.419 37.8573 173.8 38.7618C175.225 39.6662 176.865 40.1184 178.721 40.1184Z" fill="white"/>
<path d="M213.122 47.1602V1.93809H222.187V47.1602H213.122Z" fill="white"/>
<path d="M244.088 48C241.671 48 239.404 47.5478 237.289 46.6433C235.217 45.7389 233.382 44.4899 231.785 42.8964C230.188 41.2598 228.936 39.3863 228.03 37.2759C227.166 35.1225 226.735 32.8183 226.735 30.3634C226.735 27.0902 227.49 24.14 229.001 21.5128C230.555 18.8425 232.67 16.7106 235.347 15.1171C238.066 13.5236 241.131 12.7268 244.541 12.7268C247.606 12.6837 250.347 13.2221 252.765 14.3419C255.182 15.4616 257.103 17.0121 258.528 18.9933L251.793 24.4845C251.016 23.3217 250.002 22.3957 248.75 21.7066C247.541 21.0175 246.182 20.6729 244.671 20.6729C242.815 20.6729 241.196 21.1252 239.814 22.0296C238.433 22.891 237.354 24.0538 236.577 25.5182C235.843 26.9825 235.476 28.5976 235.476 30.3634C235.476 32.0861 235.865 33.7012 236.642 35.2086C237.462 36.673 238.563 37.8573 239.944 38.7618C241.368 39.6232 243.009 40.0538 244.865 40.0538C246.549 40.0538 247.973 39.6878 249.139 38.9556C250.304 38.1804 251.319 37.2113 252.182 36.0485L258.528 41.5397C256.93 43.5639 254.945 45.1575 252.57 46.3203C250.239 47.4401 247.412 48 244.088 48Z" fill="white"/>
<path d="M276.477 48C273.024 48 269.937 47.2032 267.218 45.6097C264.498 44.0162 262.361 41.9058 260.807 39.2786C259.297 36.6083 258.541 33.6581 258.541 30.428C258.541 27.1978 259.297 24.2476 260.807 21.5774C262.361 18.9071 264.498 16.7752 267.218 15.1817C269.937 13.5882 273.024 12.7914 276.477 12.7914C279.974 12.7914 283.06 13.5882 285.737 15.1817C288.456 16.7752 290.571 18.9071 292.082 21.5774C293.636 24.2476 294.413 27.1978 294.413 30.428C294.413 33.6581 293.636 36.6083 292.082 39.2786C290.571 41.9058 288.456 44.0162 285.737 45.6097C283.06 47.2032 279.974 48 276.477 48ZM276.477 40.0538C278.333 40.0538 279.952 39.6232 281.334 38.7618C282.715 37.8573 283.773 36.673 284.506 35.2086C285.283 33.7443 285.672 32.1507 285.672 30.428C285.672 28.6622 285.283 27.0471 284.506 25.5828C283.773 24.1184 282.715 22.9556 281.334 22.0942C279.952 21.1898 278.333 20.7376 276.477 20.7376C274.621 20.7376 273.002 21.1898 271.621 22.0942C270.24 22.9556 269.16 24.1184 268.383 25.5828C267.65 27.0471 267.283 28.6622 267.283 30.428C267.283 32.1507 267.65 33.7443 268.383 35.2086C269.16 36.673 270.24 37.8573 271.621 38.7618C273.002 39.6232 274.621 40.0538 276.477 40.0538Z" fill="white"/>
<path d="M298.282 47.1602V13.5666H306.894V18.4764C308.664 14.6864 312.096 12.7914 317.19 12.7914C319.607 12.7914 321.787 13.3513 323.729 14.4711C325.672 15.5908 327.204 17.1844 328.327 19.2517C329.449 21.319 330.01 23.7739 330.01 26.6164V47.1602H321.269V28.7483C321.269 25.8196 320.6 23.7093 319.262 22.4172C317.923 21.0821 316.175 20.4145 314.017 20.4145C312.161 20.4145 310.52 21.0821 309.096 22.4172C307.714 23.7093 307.024 25.8196 307.024 28.7483V47.1602H298.282Z" fill="white"/>
<path d="M346.42 48C340.765 48 336.103 46.0404 332.434 42.1211L338.326 36.7591C340.787 39.5155 343.42 40.8937 346.226 40.8937C347.737 40.8937 348.881 40.5707 349.658 39.9246C350.478 39.2355 350.888 38.3957 350.888 37.4051C350.888 36.8022 350.737 36.2853 350.435 35.8546C350.176 35.424 349.593 35.0148 348.687 34.6272C347.823 34.2396 346.507 33.852 344.737 33.4643C341.715 32.7322 339.47 31.8277 338.003 30.751C336.535 29.6743 335.564 28.4684 335.089 27.1332C334.614 25.7981 334.376 24.4199 334.376 22.9987C334.376 20.07 335.477 17.6366 337.679 15.6985C339.924 13.7174 343.01 12.7268 346.938 12.7268C349.658 12.7268 351.989 13.1359 353.931 13.9542C355.874 14.7725 357.709 16.3015 359.435 18.541L353.09 23.3863C352.269 22.0942 351.341 21.1682 350.305 20.6083C349.312 20.0485 348.255 19.7685 347.133 19.7685C345.924 19.7685 344.909 20.0054 344.089 20.4791C343.312 20.9529 342.924 21.7066 342.924 22.7402C342.924 23.3001 343.183 23.86 343.701 24.4199C344.219 24.9367 345.471 25.4536 347.456 25.9704C350.737 26.7887 353.241 27.7577 354.967 28.8775C356.694 29.9542 357.881 31.1817 358.529 32.5599C359.176 33.9381 359.5 35.467 359.5 37.1467C359.5 39.214 358.917 41.066 357.752 42.7026C356.629 44.3392 355.075 45.6312 353.09 46.5787C351.147 47.5262 348.924 48 346.42 48Z" fill="white"/>
<path fill-rule="evenodd" clip-rule="evenodd" d="M40 0V37.7143C40 43.3949 35.5228 48 30 48H0V25.7143H10V34.2857H26.6667V13.7143H6.66667V0H40ZM3.33333 44.5714H6.66667V29.1429H3.33333V44.5714ZM10 44.5714H26.6667V37.7143H10V44.5714ZM30 44.5714C33.6819 44.5714 36.6667 41.5014 36.6667 37.7143H30V44.5714ZM30 34.2857H36.6667V3.42857H30V34.2857ZM10 10.2857H26.6667V3.42857H10V10.2857Z" fill="white"/>
</svg>
