<svg width="305" height="48" viewBox="0 0 305 48" fill="none" xmlns="http://www.w3.org/2000/svg">
<path fill-rule="evenodd" clip-rule="evenodd" d="M40 5V34.8571C40 39.3543 36.4183 43 32 43H8V25.3571H16V32.1429H29.3333V15.8571H13.3333V5H40ZM10.6667 40.2857H13.3333V28.0714H10.6667V40.2857ZM16 40.2857H29.3333V34.8571H16V40.2857ZM32 40.2857C34.9455 40.2857 37.3333 37.8553 37.3333 34.8571H32V40.2857ZM32 32.1429H37.3333V7.71429H32V32.1429ZM16 13.1429H29.3333V7.71429H16V13.1429Z" fill="white"/>
<path d="M78.9906 28.5066C78.9906 30.9562 78.5212 33.0369 77.5828 34.7459C76.6729 36.4547 75.3505 37.7654 73.6161 38.6768C71.9101 39.5597 69.8625 40 67.4741 40C65.1142 40 63.0665 39.5596 61.3321 38.6768C59.6261 37.7654 58.3037 36.4546 57.3653 34.7459C56.4554 33.0369 56 30.9562 56 28.5066V26.9265H62.9095V28.891C62.9095 30.2581 63.3071 31.3706 64.1032 32.225C64.9278 33.0511 66.0523 33.4632 67.4741 33.4632C68.8671 33.4632 69.9621 33.0508 70.7582 32.225C71.5828 31.3705 71.9943 30.2582 71.9943 28.891V14.1079H59.6254V8H78.9906V28.5066Z" fill="white"/>
<path fill-rule="evenodd" clip-rule="evenodd" d="M95.521 14.9637C98.0233 14.9637 100.128 15.5338 101.835 16.6732C103.569 17.784 104.891 19.2507 105.801 21.0735C106.711 22.8678 107.167 24.8329 107.167 26.969V29.2773H90.0963C90.1945 29.9709 90.3527 30.612 90.5746 31.1993C90.9726 32.2244 91.5981 33.0212 92.4509 33.5907C93.3039 34.1604 94.4127 34.4464 95.7774 34.4465C97.0286 34.4465 98.0532 34.2044 98.8494 33.7202C99.6453 33.236 100.185 32.6375 100.469 31.9256H106.74C106.399 33.492 105.73 34.8869 104.735 36.1116C103.74 37.3361 102.489 38.2907 100.982 38.9743C99.4752 39.6579 97.7395 40 95.7774 40C93.7871 40 92.0233 39.6579 90.4878 38.9743C88.9813 38.2908 87.7161 37.3799 86.6927 36.241C85.6975 35.0732 84.9304 33.7766 84.3901 32.3525C83.8784 30.9 83.6208 29.4191 83.6207 27.9097V27.054C83.6208 25.4876 83.8784 23.9926 84.3901 22.5686C84.9304 21.1161 85.6975 19.8195 86.6927 18.6802C87.6878 17.5411 88.9247 16.6444 90.403 15.9894C91.9098 15.3059 93.6161 14.9638 95.521 14.9637ZM95.521 20.5172C94.327 20.5173 93.3178 20.7894 92.4934 21.3304C91.669 21.8716 91.0435 22.6683 90.617 23.7218C90.4097 24.2202 90.253 24.7761 90.1465 25.3889H100.683C100.585 24.7322 100.428 24.1341 100.213 23.5944C99.8147 22.5974 99.2175 21.8431 98.4213 21.3304C97.6536 20.7893 96.6867 20.5172 95.521 20.5172Z" fill="white"/>
<path d="M205.238 14.9637C207.342 14.9637 209.204 15.3761 210.825 16.2019C212.446 16.9994 213.74 18.1257 214.707 19.5784C215.673 21.031 216.215 22.6978 216.329 24.5776H209.631C209.517 23.5237 209.09 22.6394 208.351 21.9273C207.64 21.1872 206.603 20.8167 205.238 20.8166C204.101 20.8166 203.148 21.101 202.38 21.6704C201.641 22.2401 201.086 23.0243 200.716 24.0212C200.346 25.0181 200.163 26.2007 200.163 27.5678C200.163 28.8207 200.333 29.9598 200.674 30.9849C201.015 31.9818 201.556 32.7661 202.295 33.3357C203.063 33.8766 204.058 34.147 205.281 34.147C206.19 34.147 206.958 33.9907 207.583 33.6777C208.237 33.3359 208.75 32.8797 209.12 32.31C209.518 31.7119 209.76 31.0275 209.845 30.2586H216.498C216.413 32.1951 215.873 33.9043 214.878 35.3852C213.883 36.8377 212.561 37.9783 210.912 38.8043C209.262 39.6018 207.385 40 205.281 40C203.262 40 201.498 39.6738 199.991 39.0187C198.512 38.3351 197.276 37.4228 196.281 36.2835C195.285 35.1441 194.546 33.8617 194.063 32.4375C193.58 30.9851 193.338 29.4901 193.338 27.9522V27.1409C193.338 25.5458 193.594 24.0213 194.105 22.5686C194.617 21.0875 195.37 19.777 196.366 18.6377C197.361 17.4986 198.598 16.602 200.076 15.9469C201.583 15.2918 203.305 14.9637 205.238 14.9637Z" fill="white"/>
<path fill-rule="evenodd" clip-rule="evenodd" d="M232.251 14.9637C234.27 14.9637 236.062 15.2918 237.626 15.9469C239.218 16.5735 240.569 17.4419 241.678 18.5527C242.787 19.6636 243.639 20.96 244.237 22.4411C244.834 23.8935 245.133 25.4308 245.133 27.054V28.0372C245.133 29.6323 244.848 31.1568 244.279 32.6094C243.71 34.0333 242.871 35.3003 241.762 36.411C240.682 37.5218 239.346 38.4061 237.753 39.0612C236.161 39.6877 234.327 40 232.251 40C230.204 40 228.384 39.6877 226.792 39.0612C225.2 38.4061 223.85 37.5218 222.741 36.411C221.66 35.3002 220.835 34.0334 220.266 32.6094C219.698 31.1568 219.412 29.6323 219.412 28.0372V27.054C219.412 25.4309 219.698 23.8934 220.266 22.4411C220.864 20.96 221.716 19.6635 222.825 18.5527C223.963 17.442 225.327 16.5735 226.919 15.9469C228.512 15.2918 230.289 14.9637 232.251 14.9637ZM232.251 20.7316C231 20.7316 229.92 21.0299 229.01 21.6279C228.1 22.2261 227.403 23.0383 226.919 24.0637C226.464 25.0607 226.237 26.2291 226.237 27.5678C226.237 28.8207 226.465 29.9598 226.919 30.9849C227.374 32.0103 228.057 32.8086 228.967 33.3782C229.877 33.9478 230.972 34.232 232.251 34.232C233.588 34.232 234.697 33.9477 235.578 33.3782C236.46 32.8086 237.129 32.0103 237.584 30.9849C238.067 29.9598 238.309 28.8207 238.309 27.5678C238.309 26.2291 238.067 25.0607 237.584 24.0637C237.1 23.0383 236.403 22.2261 235.493 21.6279C234.612 21.0299 233.531 20.7316 232.251 20.7316Z" fill="white"/>
<path fill-rule="evenodd" clip-rule="evenodd" d="M135.489 39.1887H130.072V34.1702C129.93 34.5172 129.778 34.853 129.604 35.1728C128.779 36.7394 127.655 37.9358 126.233 38.7618C124.811 39.5591 123.177 39.9574 121.329 39.9575C119.68 39.9575 118.172 39.6593 116.807 39.0612C115.47 38.4631 114.304 37.6368 113.309 36.5829C112.313 35.5005 111.546 34.2321 111.006 32.7794C110.494 31.3269 110.239 29.7601 110.239 28.0797V27.0965C110.239 25.4163 110.48 23.8491 110.964 22.3967C111.476 20.9444 112.201 19.6773 113.139 18.5952C114.106 17.4846 115.257 16.63 116.593 16.0319C117.929 15.4052 119.423 15.0912 121.072 15.0912C122.949 15.0912 124.569 15.5054 125.934 16.3313C127.02 16.9658 127.914 17.8539 128.622 18.9931V8H135.489V39.1887ZM122.991 20.7741C121.854 20.7742 120.831 21.0727 119.921 21.6704C119.04 22.24 118.343 23.0384 117.831 24.0637C117.319 25.0607 117.063 26.2291 117.063 27.5678C117.063 28.9348 117.319 30.1175 117.831 31.1143C118.343 32.1109 119.054 32.8797 119.964 33.4207C120.873 33.9617 121.897 34.2319 123.034 34.232C124.086 34.232 125.039 34.0039 125.892 33.5482C126.773 33.0641 127.47 32.3674 127.982 31.4562C128.522 30.5448 128.792 29.4464 128.792 28.1647V26.5846C128.792 25.3313 128.522 24.2769 127.982 23.4224C127.442 22.5681 126.731 21.9136 125.849 21.4579C124.968 21.0022 124.015 20.7741 122.991 20.7741Z" fill="white"/>
<path fill-rule="evenodd" clip-rule="evenodd" d="M165.48 39.1887H160.063V34.1702C159.921 34.5172 159.769 34.853 159.595 35.1728C158.77 36.7394 157.645 37.9358 156.224 38.7618C154.802 39.5591 153.167 39.9574 151.32 39.9575C149.671 39.9575 148.162 39.6593 146.798 39.0612C145.461 38.4631 144.295 37.6368 143.299 36.5829C142.304 35.5005 141.537 34.2321 140.997 32.7794C140.485 31.3269 140.229 29.7601 140.229 28.0797V27.0965C140.229 25.4163 140.471 23.8491 140.954 22.3967C141.466 20.9444 142.192 19.6773 143.13 18.5952C144.096 17.4846 145.247 16.63 146.584 16.0319C147.92 15.4052 149.414 15.0912 151.063 15.0912C152.94 15.0912 154.56 15.5054 155.925 16.3313C157.011 16.9658 157.905 17.8539 158.613 18.9931V8H165.48V39.1887ZM152.982 20.7741C151.845 20.7742 150.822 21.0727 149.912 21.6704C149.031 22.24 148.333 23.0384 147.822 24.0637C147.31 25.0607 147.054 26.2291 147.054 27.5678C147.054 28.9348 147.31 30.1175 147.822 31.1143C148.333 32.1109 149.045 32.8797 149.954 33.4207C150.864 33.9617 151.887 34.2319 153.024 34.232C154.077 34.232 155.029 34.0039 155.882 33.5482C156.764 33.0641 157.461 32.3674 157.973 31.4562C158.513 30.5448 158.783 29.4464 158.783 28.1647V26.5846C158.783 25.3313 158.513 24.2769 157.973 23.4224C157.432 22.5681 156.721 21.9136 155.84 21.4579C154.958 21.0022 154.006 20.7741 152.982 20.7741Z" fill="white"/>
<path d="M286.166 15.0912C289.18 15.0912 291.611 15.7614 293.459 17.1001C295.308 18.4103 296.274 20.319 296.36 22.8255H290.303C290.189 22.0565 289.791 21.4143 289.109 20.9016C288.427 20.3607 287.417 20.0904 286.081 20.0903C285.029 20.0903 284.19 20.2905 283.565 20.6891C282.939 21.0878 282.626 21.6283 282.626 22.3117C282.626 22.9666 282.896 23.465 283.436 23.8068C283.976 24.1486 284.859 24.3907 286.081 24.5331L287.915 24.7051C290.786 25.0184 293.018 25.8152 294.611 27.0965C296.203 28.3782 297 30.1028 297 32.2675C297 33.834 296.573 35.2007 295.72 36.3685C294.866 37.5077 293.658 38.3921 292.094 39.0187C290.53 39.6167 288.696 39.915 286.592 39.915C283.265 39.915 280.663 39.2308 278.786 37.8636C276.91 36.4964 275.915 34.5734 275.801 32.0956H281.858C281.972 32.8362 282.413 33.5064 283.181 34.1046C283.977 34.6738 285.156 34.9583 286.72 34.9583C287.914 34.9583 288.897 34.7602 289.664 34.3615C290.46 33.9344 290.858 33.3356 290.858 32.5669C290.858 31.8833 290.558 31.3412 289.961 30.9424C289.364 30.5155 288.298 30.217 286.764 30.0461L284.928 29.8742C282.114 29.5893 279.996 28.8066 278.574 27.5253C277.181 26.2435 276.484 24.605 276.484 22.6111C276.484 20.9596 276.896 19.5784 277.72 18.4677C278.544 17.3569 279.683 16.5166 281.133 15.9469C282.612 15.3772 284.289 15.0912 286.166 15.0912Z" fill="white"/>
<path d="M188.091 39.1887H181.094V8H188.091V39.1887Z" fill="white"/>
<path d="M263.501 15.0487C266.231 15.0487 268.308 15.9469 269.73 17.7414C271.18 19.5074 271.906 22.1989 271.906 25.8158V39.1887H265.081V25.4314C265.081 24.1781 264.711 23.1518 263.972 22.3542C263.233 21.5567 262.236 21.1585 260.985 21.1585C259.706 21.1587 258.668 21.5713 257.872 22.3967C257.105 23.1942 256.721 24.2488 256.721 25.5589V39.1887H249.896V15.775H255.313V21.6376C255.449 20.9886 255.617 20.3865 255.824 19.8334C256.45 18.2386 257.389 17.0418 258.64 16.2444C259.891 15.447 261.413 15.0487 263.205 15.0487H263.501Z" fill="white"/>
</svg>
