<svg width="265" height="48" viewBox="0 0 265 48" fill="none" xmlns="http://www.w3.org/2000/svg">
<path fill-rule="evenodd" clip-rule="evenodd" d="M46 0V37.7143C46 43.3949 41.5228 48 36 48H6V25.7143H16V34.2857H32.6667V13.7143H12.6667V0H46ZM9.33333 44.5714H12.6667V29.1429H9.33333V44.5714ZM16 44.5714H32.6667V37.7143H16V44.5714ZM36 44.5714C39.6819 44.5714 42.6667 41.5014 42.6667 37.7143H36V44.5714ZM36 34.2857H42.6667V3.42857H36V34.2857ZM16 10.2857H32.6667V3.42857H16V10.2857Z" fill="white"/>
<path d="M63.8708 39.9139C62.6909 39.9139 61.5685 39.8134 60.5037 39.6124C59.4389 39.4114 58.6043 39.1243 58 38.751L60.2879 33.7981C60.921 34.2575 61.8419 34.4872 63.0506 34.4872C64.0578 34.4872 64.8924 34.2432 65.5543 33.755C66.245 33.2382 66.5903 32.3912 66.5903 31.214V9.29206H72.6338V31.4293C72.6338 33.3818 72.2453 34.9897 71.4683 36.253C70.72 37.4877 69.684 38.4065 68.3602 39.0094C67.0652 39.6124 65.5687 39.9139 63.8708 39.9139Z" fill="white"/>
<path d="M87.0406 40C84.7383 40 82.7095 39.4688 80.954 38.4065C79.1985 37.3441 77.8315 35.9372 76.8531 34.1857C75.9034 32.4056 75.4285 30.4388 75.4285 28.2853C75.4285 26.1319 75.9322 24.1651 76.9394 22.3849C77.9466 20.576 79.3136 19.1404 81.0403 18.0781C82.7958 17.0157 84.7959 16.4845 87.0406 16.4845C89.2853 16.4845 91.2566 17.0157 92.9545 18.0781C94.6812 19.1404 96.0194 20.576 96.9691 22.3849C97.9476 24.1651 98.4368 26.1319 98.4368 28.2853C98.4368 28.6012 98.4224 28.9314 98.3936 29.2759C98.3649 29.6205 98.3217 29.9794 98.2641 30.3526H81.472C81.7886 31.6734 82.4217 32.7501 83.3714 33.5828C84.3498 34.4154 85.5729 34.8318 87.0406 34.8318C88.3068 34.8318 89.4004 34.5446 90.3213 33.9704C91.271 33.3961 92.0049 32.6783 92.5229 31.817L97.0555 35.2194C96.1633 36.6263 94.8251 37.7748 93.0409 38.6649C91.2566 39.555 89.2565 40 87.0406 40ZM86.9543 21.4805C85.5729 21.4805 84.393 21.8968 83.4145 22.7295C82.4361 23.5621 81.7886 24.6532 81.472 26.0027H92.566C92.2495 24.7681 91.5876 23.7057 90.5803 22.8156C89.6019 21.9255 88.3932 21.4805 86.9543 21.4805Z" fill="white"/>
<path d="M110.931 40C108.888 40 107.017 39.4832 105.319 38.4495C103.65 37.3872 102.312 35.9803 101.304 34.2288C100.326 32.4486 99.8367 30.4818 99.8367 28.3284C99.8367 26.7205 100.125 25.2131 100.7 23.8062C101.276 22.3706 102.067 21.1216 103.074 20.0592C104.082 18.9681 105.247 18.1211 106.571 17.5182C107.923 16.8865 109.377 16.5707 110.931 16.5707C112.859 16.5707 114.37 16.9296 115.463 17.6474C116.557 18.3652 117.406 19.3127 118.01 20.4899V8H123.838V39.4401H118.183V35.7793C117.579 37.0426 116.715 38.0619 115.593 38.8371C114.499 39.6124 112.945 40 110.931 40ZM111.88 34.7456C113.175 34.7456 114.283 34.4585 115.204 33.8843C116.154 33.2813 116.888 32.4917 117.406 31.5155C117.924 30.5393 118.183 29.4769 118.183 28.3284C118.183 27.1512 117.924 26.0745 117.406 25.0983C116.888 24.122 116.154 23.3324 115.204 22.7295C114.283 22.1265 113.175 21.825 111.88 21.825C110.643 21.825 109.549 22.1265 108.6 22.7295C107.679 23.3037 106.959 24.079 106.441 25.0552C105.923 26.0314 105.664 27.1081 105.664 28.2853C105.664 29.4051 105.923 30.4675 106.441 31.4724C106.959 32.4486 107.679 33.2382 108.6 33.8412C109.549 34.4441 110.643 34.7456 111.88 34.7456Z" fill="white"/>
<path d="M137.531 40C135.488 40 133.617 39.4832 131.919 38.4495C130.25 37.3872 128.912 35.9803 127.905 34.2288C126.926 32.4486 126.437 30.4818 126.437 28.3284C126.437 26.7205 126.725 25.2131 127.3 23.8062C127.876 22.3706 128.667 21.1216 129.675 20.0592C130.682 18.9681 131.847 18.1211 133.171 17.5182C134.524 16.8865 135.977 16.5707 137.531 16.5707C139.459 16.5707 140.97 16.9296 142.064 17.6474C143.157 18.3652 144.006 19.3127 144.611 20.4899V8H150.438V39.4401H144.783V35.7793C144.179 37.0426 143.315 38.0619 142.193 38.8371C141.1 39.6124 139.546 40 137.531 40ZM138.481 34.7456C139.776 34.7456 140.884 34.4585 141.805 33.8843C142.754 33.2813 143.488 32.4917 144.006 31.5155C144.524 30.5393 144.783 29.4769 144.783 28.3284C144.783 27.1512 144.524 26.0745 144.006 25.0983C143.488 24.122 142.754 23.3324 141.805 22.7295C140.884 22.1265 139.776 21.825 138.481 21.825C137.243 21.825 136.15 22.1265 135.2 22.7295C134.279 23.3037 133.56 24.079 133.042 25.0552C132.524 26.0314 132.265 27.1081 132.265 28.2853C132.265 29.4051 132.524 30.4675 133.042 31.4724C133.56 32.4486 134.279 33.2382 135.2 33.8412C136.15 34.4441 137.243 34.7456 138.481 34.7456Z" fill="white"/>
<path d="M161.414 39.4401V9.29206H167.458V39.4401H161.414Z" fill="white"/>
<path d="M182.059 40C180.447 40 178.936 39.6985 177.526 39.0956C176.145 38.4926 174.922 37.6599 173.857 36.5976C172.792 35.5065 171.957 34.2575 171.353 32.8506C170.778 31.415 170.49 29.8789 170.49 28.2423C170.49 26.0601 170.993 24.0933 172.001 22.3419C173.037 20.5617 174.447 19.1404 176.231 18.0781C178.044 17.0157 180.087 16.4845 182.361 16.4845C184.404 16.4558 186.232 16.8147 187.843 17.5612C189.455 18.3078 190.735 19.3414 191.685 20.6622L187.196 24.323C186.678 23.5478 186.001 22.9305 185.167 22.4711C184.361 22.0117 183.454 21.782 182.447 21.782C181.21 21.782 180.131 22.0834 179.21 22.6864C178.289 23.2607 177.569 24.0359 177.051 25.0121C176.562 25.9883 176.317 27.065 176.317 28.2423C176.317 29.3908 176.576 30.4675 177.094 31.4724C177.641 32.4486 178.375 33.2382 179.296 33.8412C180.246 34.4154 181.339 34.7026 182.577 34.7026C183.699 34.7026 184.649 34.4585 185.426 33.9704C186.203 33.4536 186.879 32.8075 187.455 32.0323L191.685 35.6931C190.62 37.0426 189.296 38.105 187.714 38.8802C186.16 39.6267 184.275 40 182.059 40Z" fill="white"/>
<path d="M203.652 40C201.349 40 199.292 39.4688 197.479 38.4065C195.666 37.3441 194.241 35.9372 193.205 34.1857C192.198 32.4056 191.694 30.4388 191.694 28.2853C191.694 26.1319 192.198 24.1651 193.205 22.3849C194.241 20.6048 195.666 19.1835 197.479 18.1211C199.292 17.0588 201.349 16.5276 203.652 16.5276C205.983 16.5276 208.04 17.0588 209.824 18.1211C211.638 19.1835 213.048 20.6048 214.055 22.3849C215.091 24.1651 215.609 26.1319 215.609 28.2853C215.609 30.4388 215.091 32.4056 214.055 34.1857C213.048 35.9372 211.638 37.3441 209.824 38.4065C208.04 39.4688 205.983 40 203.652 40ZM203.652 34.7026C204.889 34.7026 205.968 34.4154 206.889 33.8412C207.81 33.2382 208.515 32.4486 209.004 31.4724C209.522 30.4962 209.781 29.4338 209.781 28.2853C209.781 27.1081 209.522 26.0314 209.004 25.0552C208.515 24.079 207.81 23.3037 206.889 22.7295C205.968 22.1265 204.889 21.825 203.652 21.825C202.414 21.825 201.335 22.1265 200.414 22.7295C199.493 23.3037 198.774 24.079 198.256 25.0552C197.766 26.0314 197.522 27.1081 197.522 28.2853C197.522 29.4338 197.766 30.4962 198.256 31.4724C198.774 32.4486 199.493 33.2382 200.414 33.8412C201.335 34.4154 202.414 34.7026 203.652 34.7026Z" fill="white"/>
<path d="M218.188 39.4401V17.0444H223.929V20.3176C225.109 17.7909 227.397 16.5276 230.793 16.5276C232.405 16.5276 233.858 16.9009 235.153 17.6474C236.448 18.3939 237.47 19.4563 238.218 20.8345C238.966 22.2127 239.34 23.8493 239.34 25.7443V39.4401H233.513V27.1655C233.513 25.2131 233.067 23.8062 232.174 22.9448C231.282 22.0547 230.117 21.6097 228.678 21.6097C227.44 21.6097 226.347 22.0547 225.397 22.9448C224.476 23.8062 224.016 25.2131 224.016 27.1655V39.4401H218.188Z" fill="white"/>
<path d="M250.28 40C246.51 40 243.402 38.6936 240.956 36.0808L244.884 32.5061C246.525 34.3437 248.28 35.2624 250.151 35.2624C251.158 35.2624 251.921 35.0471 252.439 34.6164C252.985 34.157 253.259 33.5971 253.259 32.9367C253.259 32.5348 253.158 32.1902 252.957 31.9031C252.784 31.616 252.395 31.3432 251.791 31.0848C251.215 30.8264 250.338 30.568 249.158 30.3096C247.143 29.8214 245.647 29.2185 244.668 28.5007C243.69 27.7829 243.042 26.9789 242.726 26.0888C242.409 25.1987 242.251 24.2799 242.251 23.3324C242.251 21.38 242.985 19.7577 244.453 18.4657C245.949 17.1449 248.007 16.4845 250.626 16.4845C252.439 16.4845 253.993 16.7573 255.288 17.3028C256.583 17.8484 257.806 18.8677 258.957 20.3607L254.726 23.5908C254.18 22.7295 253.561 22.1122 252.87 21.7389C252.208 21.3656 251.503 21.179 250.755 21.179C249.949 21.179 249.273 21.3369 248.726 21.6528C248.208 21.9686 247.949 22.4711 247.949 23.1602C247.949 23.5334 248.122 23.9067 248.467 24.2799C248.812 24.6245 249.647 24.969 250.971 25.3136C253.158 25.8591 254.827 26.5052 255.978 27.2517C257.129 27.9695 257.921 28.7878 258.352 29.7066C258.784 30.6254 259 31.6447 259 32.7645C259 34.1427 258.611 35.3773 257.834 36.4684C257.086 37.5594 256.05 38.4208 254.726 39.0525C253.431 39.6842 251.949 40 250.28 40Z" fill="white"/>
</svg>
